<svg width="640" height="480" viewBox="0 0 640 480" fill="none" xmlns="http://www.w3.org/2000/svg">
  <defs>
    <linearGradient id="bgGradient" x1="0" y1="0" x2="1" y2="1">
      <stop offset="0" stop-color="#111827" />
      <stop offset="1" stop-color="#020617" />
    </linearGradient>
    <linearGradient id="cardGradient" x1="0" y1="0" x2="1" y2="1">
      <stop offset="0" stop-color="#1D2438" />
      <stop offset="1" stop-color="#020617" />
    </linearGradient>
    <linearGradient id="accentGradient" x1="0" y1="0" x2="1" y2="1">
      <stop offset="0" stop-color="#6366F1" />
      <stop offset="1" stop-color="#22C55E" />
    </linearGradient>
    <filter id="softGlow" x="-50%" y="-50%" width="200%" height="200%">
      <feGaussianBlur stdDeviation="40" result="blur"/>
      <feColorMatrix in="blur" type="matrix"
        values="0 0 0 0 0.35
                0 0 0 0 0.52
                0 0 0 0 1
                0 0 0 0.45 0"/>
    </filter>
  </defs>
  <rect width="640" height="480" rx="32" fill="url(#bgGradient)" />

  <ellipse cx="210" cy="270" rx="180" ry="140" fill="#020617" filter="url(#softGlow)" />

  <rect x="90" y="80" width="260" height="320" rx="40" fill="url(#cardGradient)" stroke="#1F2937" stroke-width="1.5"/>

  <rect x="130" y="120" width="180" height="180" rx="32" fill="#020617" stroke="#1F2937" stroke-width="1.5"/>

  <rect x="165" y="150" width="110" height="110" rx="24" fill="#111827" />

  <circle cx="200" cy="195" r="10" fill="#22C55E" />
  <circle cx="240" cy="195" r="10" fill="#22C55E" fill-opacity="0.7" />
  <rect x="202" y="218" width="36" height="6" rx="3" fill="#0F172A" />

  <rect x="210" y="126" width="6" height="22" rx="3" fill="#4B5563" />
  <circle cx="213" cy="120" r="6" fill="#6366F1" />

  <rect x="140" y="322" width="160" height="40" rx="20" fill="#020617" stroke="#1F2937" stroke-width="1.2" />
  <rect x="150" y="330" width="38" height="24" rx="12" fill="#020617" />
  <text x="160" y="346" fill="#9CA3AF" font-family="system-ui, -apple-system, BlinkMacSystemFont, 'Segoe UI', sans-serif" font-size="11">404</text>
  <rect x="195" y="330" width="90" height="24" rx="12" fill="#059669" fill-opacity="0.18" stroke="#10B981" stroke-width="0.9"/>
  <text x="205" y="346" fill="#D1FAE5" font-family="system-ui, -apple-system, BlinkMacSystemFont, 'Segoe UI', sans-serif" font-size="10">Lost in articles</text>

  <rect x="158" y="278" width="60" height="22" rx="11" fill="#020617" stroke="#111827" stroke-width="1" />
  <text x="168" y="292" fill="#9CA3AF" font-family="system-ui, -apple-system, BlinkMacSystemFont, 'Segoe UI', sans-serif" font-size="9">article-hub-bot</text>

  <rect x="230" y="278" width="46" height="22" rx="11" fill="#020617" />
  <text x="240" y="292" fill="#4B5563" font-family="system-ui, -apple-system, BlinkMacSystemFont, 'Segoe UI', sans-serif" font-size="9">v1.0.0</text>

  <g opacity="0.7">
    <circle cx="430" cy="140" r="42" fill="#020617" />
    <circle cx="430" cy="140" r="42" fill="url(#accentGradient)" fill-opacity="0.12" />
    <path d="M416 144L424 152L446 130" stroke="#22C55E" stroke-width="4" stroke-linecap="round" stroke-linejoin="round"/>
    <circle cx="416" cy="144" r="4" fill="#22C55E" />
    <circle cx="424" cy="152" r="4" fill="#22C55E" />
    <circle cx="446" cy="130" r="4" fill="#22C55E" />
  </g>

  <text x="360" y="230" fill="#E5E7EB" font-family="system-ui, -apple-system, BlinkMacSystemFont, 'Segoe UI', sans-serif" font-weight="600" font-size="26">
    Our article bot
  </text>
  <text x="360" y="262" fill="#A5B4FC" font-family="system-ui, -apple-system, BlinkMacSystemFont, 'Segoe UI', sans-serif" font-weight="700" font-size="28">
    couldn’t find that
  </text>
  <text x="360" y="292" fill="#38BDF8" font-family="system-ui, -apple-system, BlinkMacSystemFont, 'Segoe UI', sans-serif" font-weight="700" font-size="28">
    page.
  </text>

  <text x="360" y="326" fill="#9CA3AF" font-family="system-ui, -apple-system, BlinkMacSystemFont, 'Segoe UI', sans-serif" font-size="13">
    The page you’re looking for doesn’t exist or has moved.
  </text>
  <text x="360" y="346" fill="#6B7280" font-family="system-ui, -apple-system, BlinkMacSystemFont, 'Segoe UI', sans-serif" font-size="13">
    Check the URL, or head back home to keep reading.
  </text>

  <rect x="360" y="368" width="160" height="40" rx="20" fill="#4F46E5" />
  <text x="392" y="393" fill="white" font-family="system-ui, -apple-system, BlinkMacSystemFont, 'Segoe UI', sans-serif" font-weight="600" font-size="14">
    Back to homepage
  </text>

  <text x="360" y="426" fill="#4B5563" font-family="system-ui, -apple-system, BlinkMacSystemFont, 'Segoe UI', sans-serif" font-size="11">
    Error code:
  </text>
  <text x="420" y="426" fill="#E5E7EB" font-family="ui-monospace, SFMono-Regular, Menlo, Monaco, Consolas, 'Liberation Mono', 'Courier New', monospace" font-size="11">
    404_NOT_FOUND
  </text>
</svg>


